<svg version="1.1" id="Layer_1" xmlns="http://www.w3.org/2000/svg" xmlns:xlink="http://www.w3.org/1999/xlink" x="0px" y="0px"
	 width="100%" viewBox="0 0 1254 1254" enable-background="new 0 0 1254 1254" xml:space="preserve">
<path fill="#FDFDFD" opacity="1.000000" stroke="none" 
	d="
M1.000006,1102.000000 
	C1.000000,786.303955 1.000000,470.607941 1.419171,154.539276 
	C2.183983,153.499985 2.782629,152.853760 2.838404,152.163681 
	C4.387507,132.997375 10.341388,115.098053 18.850946,98.039070 
	C30.816889,74.051132 46.656361,53.197350 68.329712,36.920120 
	C93.325439,18.147713 120.877853,5.973684 152.084244,2.456009 
	C152.768845,2.378838 153.363434,1.503182 154.000000,1.000002 
	C471.696045,1.000000 789.392090,1.000000 1107.260742,1.344140 
	C1109.901367,2.406284 1112.329224,3.337377 1114.843262,3.809984 
	C1147.235474,9.899512 1175.543701,24.261324 1199.733276,46.474461 
	C1206.973267,53.122929 1213.507324,60.699833 1219.504761,68.511726 
	C1236.860107,91.117805 1248.536499,116.339569 1252.925171,144.711700 
	C1253.106934,145.886658 1254.285767,146.907379 1255.000000,147.999985 
	C1255.000000,468.362701 1255.000000,788.725403 1254.657227,1109.300049 
	C1253.138550,1114.410889 1252.107300,1119.349854 1250.763550,1124.202271 
	C1240.749512,1160.362427 1222.267944,1191.140869 1193.272339,1215.410889 
	C1169.607056,1235.219482 1142.672729,1247.680908 1112.308838,1252.922363 
	C1111.121704,1253.127319 1110.099121,1254.285767 1109.000000,1255.000000 
	C791.303955,1255.000000 473.607941,1255.000000 155.357376,1254.714966 
	C154.535248,1254.619995 154.267639,1254.810059 154.000015,1255.000000 
	C152.286362,1255.000000 150.572708,1255.000000 148.654388,1254.616211 
	C147.403641,1253.784058 146.394226,1253.080933 145.306152,1252.924438 
	C112.551933,1248.211426 84.292862,1233.713135 59.484661,1212.442871 
	C43.911411,1199.090576 31.591084,1182.817993 21.783138,1164.754272 
	C11.520947,1145.853882 4.661165,1125.856445 2.656853,1104.320312 
	C2.580744,1103.502563 1.573408,1102.771484 1.000006,1102.000000 
M229.207932,574.669128 
	C240.265793,572.349365 246.575623,565.621765 247.025955,554.431641 
	C247.271210,548.337524 246.533859,542.135132 245.617798,536.075562 
	C242.565140,515.882629 252.665466,503.214783 270.323029,495.265717 
	C278.035278,491.793823 284.225769,493.709869 289.312256,500.484955 
	C292.395447,504.591766 295.150299,509.014618 297.524872,513.570557 
	C304.220978,526.417786 310.321320,539.585083 317.307465,552.267700 
	C320.963501,558.904785 325.324951,565.423340 330.545532,570.865723 
	C338.541779,579.201782 349.747650,577.531311 356.138153,567.987671 
	C360.726196,561.135864 360.945129,553.783203 357.502472,546.609985 
	C352.538177,536.266235 347.027893,526.184204 341.738037,515.997009 
	C334.066223,501.222656 326.380157,486.455688 318.706543,471.682251 
	C315.774902,466.038208 316.830750,461.286743 321.412170,456.831665 
	C326.061890,452.310303 330.479004,447.512665 334.654694,442.547272 
	C352.738251,421.043945 365.285980,397.051788 367.459564,368.471130 
	C370.462616,328.983429 353.723175,297.704559 319.565430,280.449677 
	C292.339813,266.696594 263.059357,264.254028 233.339981,267.724335 
	C215.797028,269.772827 209.023071,281.856049 213.920166,298.602753 
	C214.837021,301.738190 215.336487,305.172028 215.162323,308.421753 
	C213.950378,331.035187 211.863220,353.619476 211.271942,376.244873 
	C209.866760,430.013977 209.059357,483.799561 208.226379,537.581787 
	C208.121445,544.356323 208.673965,551.283875 210.051575,557.905518 
	C212.222076,568.338501 219.074356,574.094910 229.207932,574.669128 
M569.174500,667.585205 
	C608.125732,663.740417 647.109558,660.187012 686.003479,655.830688 
	C694.904724,654.833618 703.895569,651.967224 712.111633,648.312256 
	C719.526306,645.013855 722.118591,637.061401 720.458069,629.716370 
	C718.817810,622.460632 713.629150,617.759949 705.082520,617.021484 
	C699.323914,616.523804 693.435364,616.846680 687.656799,617.372192 
	C645.026794,621.249695 602.402710,625.195801 559.791626,629.276001 
	C536.580505,631.498535 513.379944,633.861877 490.210297,636.477234 
	C476.608398,638.012512 469.907776,644.752869 467.783478,657.951294 
	C467.518829,659.595764 467.191925,661.242249 467.093689,662.899658 
	C465.369629,691.995422 463.777344,721.099365 461.934814,750.187561 
	C461.001709,764.918335 461.671539,779.793091 456.491516,794.137939 
	C454.929565,798.463440 456.022522,803.905762 456.505188,808.776367 
	C457.335510,817.155640 459.422821,825.470947 459.603790,833.842896 
	C460.187164,860.826233 460.091736,887.823669 460.358673,914.814697 
	C460.501495,929.255066 468.794983,938.581299 483.206818,938.237000 
	C506.819702,937.672729 530.411255,935.973389 553.989929,934.420227 
	C558.898804,934.096863 563.899048,932.829468 568.530640,931.114990 
	C577.957031,927.625610 583.237976,918.305969 581.499268,909.389282 
	C579.644897,899.879150 572.186157,894.006165 561.608093,893.986633 
	C557.619385,893.979309 553.632751,894.517883 549.640015,894.685059 
	C535.683289,895.269226 521.725830,896.132812 507.765381,896.199463 
	C501.508087,896.229370 499.176544,893.153015 499.186127,886.950134 
	C499.216400,867.457031 499.267029,847.962036 499.584442,828.472229 
	C499.749084,818.363220 502.916626,815.693176 513.226868,814.756165 
	C523.837402,813.791870 534.539429,813.021790 544.939758,810.890320 
	C550.344666,809.782593 556.115662,806.898621 560.098389,803.110718 
	C570.239014,793.466125 565.250916,776.301392 551.642822,773.132141 
	C546.889587,772.025085 541.731201,772.312744 536.776855,772.491516 
	C528.623230,772.785767 520.491150,773.644287 512.338623,774.013672 
	C504.857605,774.352661 501.875549,772.186462 500.624115,764.738831 
	C499.833344,760.032776 499.801697,755.100830 500.139648,750.320374 
	C501.630524,729.233826 502.973297,708.122009 505.219055,687.110168 
	C506.223236,677.715027 511.169159,673.988403 520.592468,672.906616 
	C536.476501,671.083069 552.380188,669.430664 569.174500,667.585205 
M364.619781,843.091919 
	C375.843109,833.196594 387.943451,824.121338 398.115387,813.242981 
	C422.713226,786.936707 438.951843,756.993591 437.455017,719.230103 
	C435.932465,680.817749 417.554779,654.547302 383.110413,639.054565 
	C361.898926,629.513855 339.246979,626.999329 316.231781,627.684509 
	C307.782318,627.936035 299.147095,628.288940 290.975586,630.208801 
	C274.325378,634.120483 270.007416,649.500244 280.981506,662.350952 
	C283.079651,664.807861 284.376648,668.874207 284.269897,672.140015 
	C283.524872,694.933594 282.049103,717.703369 281.311279,740.497070 
	C280.142303,776.609863 279.024323,812.730713 278.534149,848.856934 
	C278.145569,877.493042 278.704132,906.142517 278.902466,934.785645 
	C278.950562,941.733826 280.429718,948.355469 284.467163,954.170532 
	C288.163696,959.494629 293.347717,962.347656 299.805725,961.848450 
	C306.598694,961.323303 311.296753,957.175781 313.588867,951.037537 
	C315.127563,946.916931 315.936249,942.319275 316.054077,937.907837 
	C316.574219,918.430847 316.824188,898.944641 316.955261,879.460327 
	C316.999634,872.867310 319.785187,869.000244 325.706818,865.834961 
	C338.737976,858.869446 351.289795,851.007263 364.619781,843.091919 
M590.418457,503.764435 
	C625.788696,488.047516 656.098083,465.716553 679.375793,434.565643 
	C697.532166,410.268219 707.203918,383.149902 704.187012,352.377380 
	C700.729858,317.113800 682.423035,292.632935 649.891785,278.929291 
	C621.206543,266.845734 591.257019,265.894379 560.980896,270.328491 
	C546.779236,272.408386 539.904663,289.430756 548.201721,301.472046 
	C551.277527,305.935913 552.279846,310.390503 551.993286,315.523254 
	C550.396240,344.127594 548.023682,372.718262 547.457275,401.344116 
	C546.415833,453.972961 546.401367,506.622833 546.136230,559.264832 
	C546.119202,562.642883 547.223145,566.186279 548.494629,569.378418 
	C551.299011,576.419128 556.944946,580.153503 564.371277,580.365295 
	C571.988953,580.582397 578.227539,577.369934 580.941650,569.911682 
	C582.557800,565.470642 583.541931,560.580505 583.674805,555.860352 
	C584.059143,542.208008 583.928162,528.539185 583.871643,514.877380 
	C583.851868,510.105682 585.610229,506.497711 590.418457,503.764435 
M907.065735,465.693115 
	C908.363037,437.915192 909.618591,410.135193 910.971985,382.360016 
	C911.911865,363.072266 912.879456,343.784637 914.042725,324.509491 
	C914.689453,313.793823 919.204651,309.057343 929.597534,307.822021 
	C955.052124,304.796387 980.542969,302.061188 1005.968750,298.814209 
	C1015.004578,297.660309 1024.144043,296.145782 1032.784668,293.383423 
	C1042.396362,290.310638 1045.948853,283.005646 1044.119629,273.888672 
	C1042.283081,264.734528 1036.278320,259.961151 1026.306396,259.813171 
	C1023.309998,259.768677 1020.292725,259.695648 1017.316040,259.971100 
	C982.836853,263.161407 948.336853,266.157074 913.896484,269.727051 
	C879.785645,273.262909 845.736938,277.398132 811.660278,281.264557 
	C788.498962,283.892517 765.298218,286.225891 742.201599,289.333710 
	C736.460083,290.106262 730.685974,292.729218 725.591980,295.658295 
	C720.018555,298.862946 717.664490,304.648010 718.535095,311.126434 
	C719.389771,317.487152 723.752502,321.058533 729.659119,322.577789 
	C733.000854,323.437347 736.581360,324.118164 739.981934,323.873260 
	C757.744812,322.593994 775.485474,321.003754 793.231995,319.499725 
	C815.957825,317.573761 838.665955,315.402283 861.413818,313.789032 
	C871.928223,313.043335 876.055237,317.713196 875.617004,328.129150 
	C874.000061,366.561615 872.016724,404.983704 870.905090,443.430908 
	C869.831787,480.552673 869.587585,517.699829 869.203613,554.838135 
	C869.159912,559.073303 870.020142,563.511047 871.408325,567.527588 
	C874.294434,575.878296 881.279602,579.893372 889.757996,578.839050 
	C897.040771,577.933350 902.923645,571.662354 903.953369,563.522278 
	C904.307983,560.718933 904.413147,557.876282 904.495667,555.047607 
	C905.355957,525.581970 906.188354,496.115448 907.065735,465.693115 
M414.489929,273.857910 
	C406.216492,277.810089 402.590607,284.938751 402.058899,293.543823 
	C400.498871,318.790649 399.356995,344.063110 397.860748,369.314240 
	C397.547882,374.593567 396.779114,379.908630 395.579498,385.057892 
	C393.808044,392.661713 393.011047,400.057922 395.728699,407.647125 
	C396.710327,410.388397 396.925079,413.516602 396.944550,416.471802 
	C397.067505,435.133362 396.931030,453.796875 397.090881,472.457916 
	C397.220886,487.636902 406.081726,496.671722 421.163025,495.964355 
	C441.607086,495.005554 462.036591,493.461273 482.416229,491.564972 
	C488.926605,490.959198 495.579407,489.184875 501.594727,486.608795 
	C509.974731,483.019928 513.506653,474.196991 511.419220,465.324463 
	C509.622467,457.687469 503.032623,453.039337 493.702301,452.859406 
	C491.703735,452.820831 489.699310,452.792023 487.704681,452.895416 
	C473.070923,453.654236 458.443298,454.545532 443.804565,455.186157 
	C437.269653,455.472168 435.117188,453.273651 435.048523,446.631104 
	C434.962463,438.301605 435.030945,429.968964 435.150452,421.639343 
	C435.278748,412.698975 436.408203,411.882721 445.087036,411.003693 
	C453.830261,410.118164 462.734100,409.414825 471.155396,407.119598 
	C481.009979,404.433655 485.635406,395.347534 483.999939,385.108521 
	C482.533356,375.926971 476.113434,370.983490 465.224670,370.958282 
	C458.062805,370.941711 450.900848,371.294922 443.737701,371.386017 
	C436.988525,371.471832 435.659180,370.386475 435.982788,363.563324 
	C436.771606,346.933105 437.818634,330.313934 438.908112,313.699951 
	C439.198792,309.266968 442.321014,307.523438 446.406250,307.167847 
	C454.701752,306.445831 463.019562,305.919586 471.288300,304.966248 
	C482.010529,303.730042 492.947571,303.218475 502.711121,297.775940 
	C507.219604,295.262726 510.771118,291.853729 512.041748,286.621063 
	C514.953674,274.628967 507.065948,264.762512 493.916290,265.249634 
	C476.127289,265.908539 458.343781,267.201263 440.617584,268.859894 
	C432.064392,269.660248 423.647644,271.918182 414.489929,273.857910 
M726.858521,574.782654 
	C731.136414,575.928223 735.511047,578.330139 739.676025,578.009583 
	C761.908936,576.298157 784.138672,574.293762 806.253418,571.478088 
	C811.808655,570.770752 817.846924,567.731262 822.074707,563.975464 
	C831.395203,555.695496 827.873596,541.928040 815.829102,538.464722 
	C811.172791,537.125793 805.960571,537.112671 801.050598,537.383667 
	C788.748413,538.062805 776.477112,539.287476 764.187744,540.218323 
	C756.866638,540.772888 754.013550,538.368591 753.786316,530.990173 
	C753.571045,524.001282 753.663147,516.992798 753.898926,510.002380 
	C754.232849,500.103607 755.803040,498.952026 765.644165,497.878906 
	C773.547546,497.017059 781.622131,496.143433 789.143677,493.765839 
	C798.358582,490.852936 802.711914,481.863007 800.682312,473.111328 
	C798.723022,464.663116 791.700562,460.134949 781.636047,460.725098 
	C775.649536,461.076111 769.657043,461.340637 763.664124,461.561646 
	C756.453796,461.827606 754.580078,460.204254 754.749634,453.004547 
	C755.094910,438.349701 755.587708,423.695831 756.249756,409.051971 
	C756.585754,401.621521 758.787048,399.645325 766.322449,398.673279 
	C781.841492,396.671326 797.438538,395.109528 812.841797,392.435120 
	C822.880615,390.692139 828.808105,382.524323 827.907410,374.148499 
	C826.951965,365.263397 819.666687,359.117126 809.393555,358.556763 
	C808.231018,358.493347 807.054810,358.478760 805.896179,358.575623 
	C785.816833,360.253937 765.709656,361.667450 745.670410,363.737152 
	C729.237427,365.434387 721.922546,372.670807 720.899170,389.030518 
	C719.422913,412.630157 719.363220,436.322388 717.706726,459.905396 
	C716.716797,473.997711 714.417358,487.581177 716.647705,502.151428 
	C719.318115,519.596191 717.574341,537.714417 717.774780,555.540588 
	C717.859070,563.031555 719.857788,569.694275 726.858521,574.782654 
M616.818787,735.112549 
	C621.812683,734.958374 626.812073,734.901062 631.798828,734.620056 
	C635.940735,734.386597 637.517456,736.206543 637.296021,740.264465 
	C636.760742,750.073120 636.266785,759.887207 635.976013,769.705566 
	C634.680115,813.465332 633.296753,857.223938 632.369141,900.991943 
	C632.205811,908.700806 633.143860,916.709717 635.211426,924.123108 
	C638.176514,934.754150 649.604309,939.595886 659.187134,935.359741 
	C666.973694,931.917419 669.210938,925.007568 669.583862,917.389099 
	C670.186218,905.083984 670.278625,892.754944 670.754272,880.442505 
	C672.509033,835.025940 673.955017,789.592163 676.347900,744.208618 
	C677.120178,729.561279 673.617249,730.624634 691.845886,727.831970 
	C700.842957,726.453491 709.972473,724.931152 718.530640,721.987244 
	C726.740112,719.163208 730.415222,709.794189 728.583557,700.782959 
	C727.017395,693.078613 720.269775,687.644409 711.598083,687.201904 
	C709.608215,687.100281 707.595947,687.169067 705.608276,687.332703 
	C673.751892,689.954956 641.883667,692.451416 610.057434,695.400879 
	C604.752808,695.892456 599.238037,697.632996 594.518494,700.120850 
	C586.859070,704.158569 584.718140,711.570068 585.819519,719.772034 
	C586.903870,727.847595 592.046448,733.250183 600.502747,734.654785 
	C605.518860,735.487976 610.750122,735.026306 616.818787,735.112549 
M880.880798,696.375610 
	C880.473633,706.694214 879.977295,717.010193 879.675659,727.331909 
	C878.678467,761.456848 877.654053,795.581726 876.922974,829.712708 
	C876.833069,833.908997 877.812378,838.406006 879.414795,842.303955 
	C882.984680,850.988220 892.549988,854.922852 902.965759,852.704956 
	C910.530945,851.094055 914.653198,845.100769 914.999695,835.425232 
	C915.852051,811.623169 916.574646,787.814575 917.679199,764.023865 
	C918.961182,736.409912 920.565369,708.810608 922.095398,681.208557 
	C922.524963,673.460388 925.345215,670.569885 932.848938,669.406555 
	C941.726318,668.030273 950.649719,666.841064 959.430786,664.990051 
	C966.258972,663.550659 971.675781,659.772583 973.964111,652.673279 
	C978.225403,639.453308 969.748901,627.586609 955.804016,627.913818 
	C945.494812,628.155579 935.194336,629.139343 924.910950,630.033386 
	C899.699646,632.225220 874.495728,634.505493 849.300110,636.870300 
	C843.581055,637.407043 838.783936,639.926392 835.586487,644.936462 
	C827.247742,658.002258 836.084534,673.442627 852.440491,674.061768 
	C859.421387,674.325989 866.428223,673.815796 873.422974,673.828979 
	C878.732117,673.839050 881.047607,676.067017 881.177490,681.414734 
	C881.290588,686.072876 881.005798,690.740601 880.880798,696.375610 
M759.920227,890.499878 
	C760.001953,894.664062 759.840210,898.850342 760.216858,902.987671 
	C760.968750,911.247681 761.338745,919.632812 763.144043,927.679565 
	C764.745361,934.817261 770.140747,939.238159 777.595764,940.533386 
	C784.474487,941.728577 790.200378,938.766174 793.550354,933.431274 
	C796.215942,929.186279 797.798462,923.558105 797.869812,918.515686 
	C798.107727,901.698486 796.960083,884.860657 797.230286,868.044983 
	C797.915649,825.404358 798.860291,782.764709 800.144470,740.138062 
	C800.861633,716.331909 802.545410,692.556152 803.621094,668.758911 
	C803.996094,660.462524 804.546265,652.076843 803.763184,643.851196 
	C802.882324,634.597717 795.879700,628.244324 787.565247,627.387268 
	C780.789490,626.688782 773.239746,631.836121 769.941223,639.800842 
	C768.552368,643.154419 767.202881,646.732361 766.915344,650.295532 
	C765.978088,661.905579 765.633179,673.561768 764.892517,685.189575 
	C760.558411,753.228699 758.581238,821.323547 759.920227,890.499878 
M978.621094,520.492249 
	C978.767639,530.812012 978.471252,541.164551 979.232605,551.438721 
	C979.665283,557.278198 980.841125,563.480225 983.415405,568.657227 
	C988.952087,579.792175 1003.035339,580.772461 1009.844238,570.362122 
	C1012.823303,565.807556 1014.288086,559.525513 1014.424072,553.978516 
	C1014.958313,532.182251 1014.831787,510.365204 1014.678528,488.557831 
	C1014.535828,468.255219 1014.281555,447.947205 1013.600464,427.657562 
	C1013.312256,419.072784 1012.841858,410.282043 1007.941406,402.639648 
	C1000.651733,391.271027 985.701843,391.899445 979.812439,404.089172 
	C978.150452,407.529144 977.437561,411.766663 977.463806,415.630371 
	C977.699280,450.252625 978.197327,484.873138 978.621094,520.492249 
M836.435242,921.501099 
	C837.921387,934.198547 843.430603,939.183838 855.997742,939.182251 
	C857.661194,939.182068 859.336426,939.224548 860.986389,939.055115 
	C882.326111,936.864136 903.681763,934.806580 924.988525,932.329163 
	C932.370117,931.470886 939.874878,930.282715 946.879517,927.925842 
	C955.540771,925.011536 959.680847,917.166443 958.602600,908.628906 
	C957.633301,900.954590 952.026489,894.737488 943.070251,894.250061 
	C929.509766,893.511902 915.779541,893.197693 902.292480,894.489441 
	C885.627808,896.085449 869.061340,899.112488 852.602600,902.296997 
	C843.042175,904.146667 837.244873,910.533020 836.435242,921.501099 
M459.297821,531.951904 
	C449.885101,533.080688 440.345642,533.600952 431.098785,535.526306 
	C423.376160,537.134216 415.673859,539.710938 408.554504,543.101562 
	C401.328125,546.543152 398.133911,554.863892 399.909454,561.558350 
	C402.079529,569.740417 407.721252,574.220825 416.646667,574.562683 
	C419.622314,574.676636 422.650177,574.493774 425.598572,574.064697 
	C436.957916,572.411377 448.262329,570.344727 459.647949,568.916748 
	C474.829346,567.012695 490.101166,565.816589 505.268219,563.816467 
	C514.162354,562.643494 520.296326,554.619324 519.703674,546.240417 
	C519.087524,537.530701 512.876953,531.107727 503.562927,531.026550 
	C489.116882,530.900574 474.664032,531.562866 459.297821,531.951904 
M975.206177,353.725372 
	C975.332642,363.853424 979.208496,369.775879 987.248352,372.126221 
	C995.949585,374.669891 1003.661011,372.162262 1008.413147,363.536072 
	C1011.165283,358.540375 1012.636536,352.384796 1013.000244,346.644501 
	C1013.438477,339.727692 1009.765930,334.232605 1002.991272,331.469635 
	C995.759399,328.520172 989.309082,330.029602 983.679688,335.242004 
	C978.557495,339.984833 976.365601,346.185791 975.206177,353.725372 
M834.803162,1015.503418 
	C834.804993,1011.170166 835.048279,1006.816772 834.690125,1002.513489 
	C834.546509,1000.787903 833.496033,998.547241 832.128784,997.638000 
	C829.341980,995.784546 826.291687,998.350220 826.259888,1002.446228 
	C826.188232,1011.686951 826.237427,1020.928650 826.237427,1031.599243 
	C824.392395,1029.129639 823.395325,1027.882935 822.491882,1026.571533 
	C816.538940,1017.931213 810.717773,1009.196228 804.567810,1000.698914 
	C803.409546,999.098572 800.967224,998.427551 799.117432,997.327698 
	C798.065186,999.355835 796.147400,1001.364380 796.101074,1003.415222 
	C795.800171,1016.741821 795.932373,1030.077637 795.859070,1043.410156 
	C795.842651,1046.397705 796.384949,1048.995361 800.013733,1048.857056 
	C803.398682,1048.728149 804.248535,1046.283447 804.261475,1043.256226 
	C804.295593,1035.260864 804.418396,1027.265625 804.556946,1019.271240 
	C804.574036,1018.285278 804.900940,1017.304688 805.199890,1015.701233 
	C812.286926,1025.922729 818.792542,1035.578491 825.666443,1044.964478 
	C826.882019,1046.624268 829.633911,1047.158691 831.676331,1048.212769 
	C832.708679,1046.142212 834.545288,1044.104858 834.632263,1041.995361 
	C834.982117,1033.509888 834.790894,1025.001831 834.803162,1015.503418 
M660.109863,1030.496826 
	C660.069519,1034.654785 660.099792,1038.815063 659.964844,1042.969971 
	C659.868835,1045.925293 660.385315,1048.670532 663.878296,1048.678711 
	C667.224731,1048.686646 668.094421,1046.101562 668.073547,1043.081787 
	C668.021851,1035.596436 668.066040,1028.110596 668.071228,1020.624939 
	C668.072266,1019.150818 668.071411,1017.676697 668.071411,1016.202576 
	C675.969666,1025.568115 682.540833,1035.147095 689.420532,1044.499146 
	C690.692078,1046.227539 693.210144,1047.038940 695.152954,1048.273560 
	C696.330383,1046.115723 698.469604,1043.983154 698.527161,1041.795898 
	C698.868286,1028.829712 698.718384,1015.850769 698.753845,1002.876160 
	C698.761902,999.933777 698.022827,997.150696 694.621460,997.248230 
	C691.420227,997.340088 690.369080,999.957458 690.414124,1002.973083 
	C690.488770,1007.962708 690.529114,1012.953003 690.557129,1017.943115 
	C690.579407,1021.899902 690.561584,1025.856934 690.561584,1029.813843 
	C682.364807,1020.182617 675.674927,1010.458191 668.701355,1000.941528 
	C667.513245,999.320190 665.109741,998.589478 663.267822,997.447266 
	C662.218445,999.480530 660.346069,1001.480896 660.263245,1003.552734 
	C659.918152,1012.189453 660.111511,1020.847595 660.109863,1030.496826 
M328.095245,997.935181 
	C326.269684,998.016602 324.443085,998.183533 322.618744,998.161987 
	C318.466339,998.113098 316.505524,1000.094116 316.560669,1004.250610 
	C316.737091,1017.548035 316.868652,1030.846069 317.011017,1044.143799 
	C317.042877,1047.119141 318.416351,1049.023193 321.487152,1048.921509 
	C327.289124,1048.729614 333.191437,1048.878784 338.857208,1047.831787 
	C350.111420,1045.752197 354.583344,1034.354370 348.328979,1024.728027 
	C347.526306,1023.492798 346.576569,1022.353027 345.743896,1021.234741 
	C349.846619,1012.200745 349.623657,1005.300598 343.445007,1001.441406 
	C339.435211,998.936768 333.844666,998.962830 328.095245,997.935181 
M567.640747,998.884521 
	C560.366516,1001.177612 555.298096,1005.912109 552.305359,1012.874939 
	C546.931641,1025.376831 552.629700,1040.613525 564.612854,1045.890259 
	C577.030212,1051.358276 591.895386,1046.364746 596.795715,1034.445068 
	C600.581299,1025.236938 600.564148,1015.754822 594.250305,1007.424500 
	C587.744995,998.841736 578.788879,996.451477 567.640747,998.884521 
M501.590363,1040.243530 
	C501.583954,1040.743286 501.593750,1041.243896 501.568542,1041.742676 
	C501.401733,1045.041016 501.310333,1048.756348 505.763611,1048.734741 
	C510.275452,1048.712769 509.897644,1044.849976 509.894318,1041.652466 
	C509.889526,1037.050049 509.893066,1032.447632 509.893066,1027.563721 
	C517.349182,1027.563721 523.966492,1027.563721 531.138367,1027.563721 
	C531.138367,1032.811035 530.796387,1038.130493 531.318298,1043.364014 
	C531.508728,1045.273926 533.524658,1048.220337 535.109924,1048.512573 
	C538.173523,1049.077148 539.695435,1046.556885 539.670776,1043.396240 
	C539.565552,1029.911499 539.653564,1016.420898 539.200317,1002.948303 
	C539.133545,1000.963623 536.536865,999.064026 535.110779,997.125061 
	C533.806580,999.136658 531.620300,1001.047241 531.376221,1003.180176 
	C530.814758,1008.086975 531.198181,1013.101990 531.198181,1018.553467 
	C523.941956,1018.553467 517.206665,1018.553467 510.171417,1018.553467 
	C510.075378,1017.193787 509.922516,1015.905090 509.904694,1014.614502 
	C509.847229,1010.449890 510.210083,1006.233215 509.642181,1002.143311 
	C509.392120,1000.342468 507.288239,998.799011 506.026031,997.138733 
	C504.585022,998.698486 502.940399,1000.124878 501.792603,1001.876770 
	C501.253448,1002.699646 501.658569,1004.149170 501.656403,1005.314697 
	C501.635590,1016.643494 501.619141,1027.972290 501.590363,1040.243530 
M395.431854,1008.276855 
	C392.984894,1001.483276 387.795654,998.438721 380.929016,997.953552 
	C376.449921,997.636963 371.946930,997.654541 367.454315,997.535095 
	C364.190247,997.448242 362.517456,998.901001 362.564484,1002.317749 
	C362.750031,1015.802795 362.896301,1029.288574 362.989899,1042.774536 
	C363.011383,1045.870483 363.469452,1048.841797 367.225250,1048.829468 
	C371.324493,1048.816040 371.616241,1045.614502 371.547333,1042.374023 
	C371.460480,1038.291626 371.526367,1034.205933 371.526367,1030.409912 
	C376.537720,1028.739258 379.267761,1030.023193 381.425323,1034.193237 
	C383.703369,1038.596069 386.600616,1042.788574 389.868256,1046.510254 
	C391.016022,1047.817627 394.503998,1048.407715 396.143280,1047.646118 
	C398.891296,1046.369385 397.675385,1043.828735 396.204071,1041.742188 
	C393.060913,1037.284790 390.004852,1032.765869 386.910492,1028.268433 
	C395.862335,1022.386475 397.496155,1018.698853 395.431854,1008.276855 
M426.499573,1005.830933 
	C428.997772,1005.823425 431.496521,1005.846924 433.993988,1005.800293 
	C436.946594,1005.745178 439.570374,1004.780090 439.517456,1001.408081 
	C439.464142,998.009033 436.804108,997.213013 433.841644,997.252380 
	C427.016205,997.343079 420.190582,997.423035 413.364868,997.490601 
	C410.223053,997.521667 408.957367,999.103271 408.984406,1002.208008 
	C409.101868,1015.697144 409.220795,1029.187866 409.120361,1042.676392 
	C409.088226,1046.987549 410.891663,1048.826782 415.055420,1048.696899 
	C421.540161,1048.494385 428.024628,1048.258545 434.511108,1048.147217 
	C437.511200,1048.095703 440.611816,1048.030640 440.555603,1044.055420 
	C440.500305,1040.141479 437.446594,1039.987915 434.416901,1040.026489 
	C428.980988,1040.095459 423.543549,1040.045898 418.081116,1040.045898 
	C418.081116,1035.536377 418.081116,1031.648560 418.081116,1027.113037 
	C421.451447,1027.113037 424.431244,1026.991577 427.396729,1027.145752 
	C430.610138,1027.312744 433.802368,1027.333618 433.905670,1023.081726 
	C434.012115,1018.700256 430.587708,1018.900696 427.511200,1018.803589 
	C424.403687,1018.705505 421.300537,1018.469116 417.593750,1018.259277 
	C417.593750,1015.314575 417.782013,1012.668579 417.545105,1010.061157 
	C417.261688,1006.941895 418.656097,1005.830566 421.540070,1005.910767 
	C422.869598,1005.947693 424.202667,1005.859558 426.499573,1005.830933 
M778.850586,1047.772583 
	C780.792053,1047.709473 783.221436,1048.311279 784.513611,1047.363159 
	C785.467407,1046.663208 785.578796,1043.685791 784.969482,1042.161377 
	C779.544067,1028.587891 773.959473,1015.075195 768.169128,1001.653687 
	C767.450806,999.988831 765.227417,997.890381 763.755920,997.931763 
	C762.221252,997.974915 760.139526,1000.080261 759.353699,1001.774170 
	C754.034546,1013.239807 748.984375,1024.830444 743.875183,1036.393066 
	C742.867554,1038.673340 741.428101,1040.960571 741.227844,1043.332520 
	C741.086487,1045.006348 742.294739,1047.485962 743.681519,1048.345093 
	C744.554565,1048.885986 747.464539,1047.536987 748.406799,1046.258789 
	C750.047546,1044.032837 750.783447,1041.159790 752.082764,1038.653442 
	C752.656433,1037.546875 753.617310,1035.892456 754.509766,1035.820557 
	C760.297241,1035.354736 766.305603,1034.336060 771.828918,1035.484009 
	C774.082886,1035.952393 775.310608,1041.375122 776.996765,1044.548462 
	C777.464233,1045.428223 777.901550,1046.323975 778.850586,1047.772583 
M461.700958,1037.018921 
	C454.049530,1030.301636 452.901093,1019.369934 459.077179,1012.042297 
	C465.142120,1004.846558 474.080231,1004.625977 482.347137,1011.187988 
	C483.465546,1012.075745 486.224030,1012.516663 487.022797,1011.809265 
	C488.228516,1010.741455 489.303314,1008.092041 488.767120,1006.814331 
	C487.878082,1004.695740 485.964050,1002.643188 483.959564,1001.415222 
	C469.491211,992.551453 451.791992,1000.135559 447.376434,1016.929321 
	C444.489105,1027.910767 449.108978,1039.282593 458.761993,1044.955078 
	C467.310059,1049.978271 481.183594,1048.687988 487.787140,1042.190186 
	C489.712189,1040.296021 491.848267,1038.167847 489.578186,1035.317383 
	C487.348816,1032.517822 484.844696,1032.997192 482.264008,1035.225708 
	C476.169891,1040.488159 469.473572,1041.104614 461.700958,1037.018921 
M712.165466,1007.601562 
	C712.194946,1018.748413 712.209778,1029.895386 712.262817,1041.042114 
	C712.279053,1044.453369 711.426331,1048.962158 716.659607,1048.775513 
	C721.688965,1048.596191 720.835571,1044.164673 720.836487,1040.723145 
	C720.837708,1036.287720 720.836731,1031.852417 720.836731,1026.868408 
	C724.534180,1026.868408 727.822693,1026.817749 731.108887,1026.883057 
	C734.199219,1026.944336 737.211670,1026.422119 737.242493,1022.712402 
	C737.275818,1018.703613 734.108704,1018.205322 730.844849,1018.271606 
	C727.598206,1018.337524 724.349121,1018.285950 721.066467,1018.285950 
	C721.066467,1013.997070 721.066467,1010.429688 721.066467,1005.896179 
	C727.072083,1005.896179 732.726868,1006.197266 738.314880,1005.718689 
	C740.063965,1005.568787 741.633118,1003.317505 743.284607,1002.028076 
	C741.664734,1000.463135 740.130676,997.667175 738.410095,997.547180 
	C731.125000,997.039368 723.783813,997.264648 716.464661,997.353760 
	C713.471069,997.390198 711.899170,999.016846 712.087585,1002.149536 
	C712.177429,1003.642639 712.140991,1005.143372 712.165466,1007.601562 
M858.057861,1043.096436 
	C857.886414,1046.302490 858.717712,1049.032593 862.501953,1048.852783 
	C866.119812,1048.680542 866.245361,1045.718872 866.234985,1042.920410 
	C866.220825,1039.090576 866.256226,1035.260376 866.258423,1031.430420 
	C866.263000,1023.315186 866.259827,1015.200012 866.259827,1006.812805 
	C869.974731,1006.636353 873.406494,1006.960205 876.534485,1006.134033 
	C878.285522,1005.671448 879.533081,1003.302673 881.007446,1001.792725 
	C879.381714,1000.550659 877.788574,998.288757 876.124817,998.235535 
	C866.804626,997.937561 857.467468,998.187317 848.135986,998.217102 
	C845.211975,998.226379 843.166138,999.374329 843.141479,1002.494141 
	C843.116638,1005.645813 845.202698,1006.789429 848.104004,1006.786316 
	C851.216797,1006.782959 854.329651,1006.785583 858.058472,1006.785583 
	C858.058472,1018.931274 858.058472,1030.555054 858.057861,1043.096436 
M922.916321,1020.501343 
	C922.901367,1014.347229 923.195312,1008.167297 922.683350,1002.054810 
	C922.529785,1000.222046 920.128479,998.577454 918.756958,996.846680 
	C917.416016,998.635864 915.970520,1000.360229 914.796936,1002.253174 
	C914.437622,1002.832703 914.871765,1003.875244 914.862122,1004.704834 
	C914.714355,1017.331543 914.613831,1029.959351 914.364624,1042.584106 
	C914.268555,1047.450073 915.424438,1048.832153 920.443604,1048.689941 
	C927.588867,1048.487549 934.730042,1048.127686 941.875854,1047.961304 
	C944.730469,1047.894653 947.619751,1047.700195 947.690308,1044.128174 
	C947.767578,1040.217285 944.767578,1039.979980 941.694336,1040.025269 
	C935.611572,1040.114746 929.526611,1040.051636 922.928833,1040.051636 
	C922.928833,1033.415039 922.928833,1027.458252 922.916321,1020.501343 
M636.613831,1014.515869 
	C636.522156,1024.133179 636.386902,1033.750366 636.365234,1043.367798 
	C636.358704,1046.276123 637.443909,1049.147095 640.773743,1048.612183 
	C642.360840,1048.357422 644.714478,1045.680054 644.745728,1044.061768 
	C645.018372,1029.960815 644.975342,1015.847717 644.613342,1001.748901 
	C644.573547,1000.198486 641.941772,998.714661 640.512146,997.199951 
	C639.201233,998.822815 637.031738,1000.313721 636.757935,1002.095825 
	C636.185425,1005.822632 636.612610,1009.702942 636.613831,1014.515869 
M891.279846,1012.517212 
	C891.273132,1022.985657 891.285889,1033.454224 891.247009,1043.922485 
	C891.236084,1046.860474 892.534363,1049.323486 895.431885,1048.744385 
	C897.170593,1048.396973 899.706299,1045.692139 899.715942,1044.034424 
	C899.797729,1029.923584 899.496338,1015.805481 898.950806,1001.703491 
	C898.891296,1000.166321 896.563782,998.716919 895.288330,997.226807 
	C893.937256,998.835327 891.795715,1000.276978 891.412842,1002.089966 
	C890.775024,1005.109924 891.264038,1008.367920 891.279846,1012.517212 
z"/>
<path fill="#020202" opacity="1.000000" stroke="none" 
	d="
M153.531342,1.000002 
	C153.363434,1.503182 152.768845,2.378838 152.084244,2.456009 
	C120.877853,5.973684 93.325439,18.147713 68.329712,36.920120 
	C46.656361,53.197350 30.816889,74.051132 18.850946,98.039070 
	C10.341388,115.098053 4.387507,132.997375 2.838404,152.163681 
	C2.782629,152.853760 2.183983,153.499985 1.419171,154.083313 
	C1.000000,103.073006 1.000000,52.146008 1.000000,1.000000 
	C51.687351,1.000000 102.375015,1.000000 153.531342,1.000002 
z"/>
<path fill="#020202" opacity="1.000000" stroke="none" 
	d="
M1.000006,1102.468628 
	C1.573408,1102.771484 2.580744,1103.502563 2.656853,1104.320312 
	C4.661165,1125.856445 11.520947,1145.853882 21.783138,1164.754272 
	C31.591084,1182.817993 43.911411,1199.090576 59.484661,1212.442871 
	C84.292862,1233.713135 112.551933,1248.211426 145.306152,1252.924438 
	C146.394226,1253.080933 147.403641,1253.784058 148.224854,1254.616211 
	C99.071541,1255.000000 50.143074,1255.000000 1.000000,1255.000000 
	C1.000000,1204.312622 1.000000,1153.624878 1.000006,1102.468628 
z"/>
<path fill="#020202" opacity="1.000000" stroke="none" 
	d="
M1255.000000,147.531326 
	C1254.285767,146.907379 1253.106934,145.886658 1252.925171,144.711700 
	C1248.536499,116.339569 1236.860107,91.117805 1219.504761,68.511726 
	C1213.507324,60.699833 1206.973267,53.122929 1199.733276,46.474461 
	C1175.543701,24.261324 1147.235474,9.899512 1114.843262,3.809984 
	C1112.329224,3.337377 1109.901367,2.406284 1107.716797,1.344140 
	C1156.927002,1.000000 1205.854004,1.000000 1255.000000,1.000000 
	C1255.000000,49.687344 1255.000000,98.375015 1255.000000,147.531326 
z"/>
<path fill="#020202" opacity="1.000000" stroke="none" 
	d="
M1109.468628,1255.000000 
	C1110.099121,1254.285767 1111.121704,1253.127319 1112.308838,1252.922363 
	C1142.672729,1247.680908 1169.607056,1235.219482 1193.272339,1215.410889 
	C1222.267944,1191.140869 1240.749512,1160.362427 1250.763550,1124.202271 
	C1252.107300,1119.349854 1253.138550,1114.410889 1254.657227,1109.756104 
	C1255.000000,1158.260620 1255.000000,1206.521118 1255.000000,1255.000000 
	C1206.645996,1255.000000 1158.291626,1255.000000 1109.468628,1255.000000 
z"/>
<path fill="#020202" opacity="1.000000" stroke="none" 
	d="
M154.250015,1255.000000 
	C154.267639,1254.810059 154.535248,1254.619995 154.901428,1254.714966 
	C155.000000,1255.000000 154.500000,1255.000000 154.250015,1255.000000 
z"/>
<path fill="#09509E" opacity="1.000000" stroke="none" 
	d="
M228.799591,574.677612 
	C219.074356,574.094910 212.222076,568.338501 210.051575,557.905518 
	C208.673965,551.283875 208.121445,544.356323 208.226379,537.581787 
	C209.059357,483.799561 209.866760,430.013977 211.271942,376.244873 
	C211.863220,353.619476 213.950378,331.035187 215.162323,308.421753 
	C215.336487,305.172028 214.837021,301.738190 213.920166,298.602753 
	C209.023071,281.856049 215.797028,269.772827 233.339981,267.724335 
	C263.059357,264.254028 292.339813,266.696594 319.565430,280.449677 
	C353.723175,297.704559 370.462616,328.983429 367.459564,368.471130 
	C365.285980,397.051788 352.738251,421.043945 334.654694,442.547272 
	C330.479004,447.512665 326.061890,452.310303 321.412170,456.831665 
	C316.830750,461.286743 315.774902,466.038208 318.706543,471.682251 
	C326.380157,486.455688 334.066223,501.222656 341.738037,515.997009 
	C347.027893,526.184204 352.538177,536.266235 357.502472,546.609985 
	C360.945129,553.783203 360.726196,561.135864 356.138153,567.987671 
	C349.747650,577.531311 338.541779,579.201782 330.545532,570.865723 
	C325.324951,565.423340 320.963501,558.904785 317.307465,552.267700 
	C310.321320,539.585083 304.220978,526.417786 297.524872,513.570557 
	C295.150299,509.014618 292.395447,504.591766 289.312256,500.484955 
	C284.225769,493.709869 278.035278,491.793823 270.323029,495.265717 
	C252.665466,503.214783 242.565140,515.882629 245.617798,536.075562 
	C246.533859,542.135132 247.271210,548.337524 247.025955,554.431641 
	C246.575623,565.621765 240.265793,572.349365 228.799591,574.677612 
M250.120132,368.600830 
	C248.807053,391.197418 247.411301,413.789764 246.247345,436.394012 
	C246.000809,441.181854 246.242264,446.062897 246.899246,450.812408 
	C247.782867,457.200470 252.346024,459.353699 258.229126,456.585480 
	C259.578156,455.950714 260.872528,455.169525 262.111938,454.336578 
	C277.934448,443.702972 292.349579,431.449005 304.936615,417.091217 
	C318.597351,401.508728 327.458008,383.795776 328.803864,362.826111 
	C330.088257,342.815033 322.803772,326.988708 305.304474,316.565613 
	C292.381897,308.868530 278.087555,305.987030 263.215942,305.856079 
	C257.285278,305.803833 254.675613,308.714630 254.199371,314.893982 
	C252.843750,332.483246 251.498856,350.073334 250.120132,368.600830 
z"/>
<path fill="#09519F" opacity="1.000000" stroke="none" 
	d="
M568.725037,667.645752 
	C552.380188,669.430664 536.476501,671.083069 520.592468,672.906616 
	C511.169159,673.988403 506.223236,677.715027 505.219055,687.110168 
	C502.973297,708.122009 501.630524,729.233826 500.139648,750.320374 
	C499.801697,755.100830 499.833344,760.032776 500.624115,764.738831 
	C501.875549,772.186462 504.857605,774.352661 512.338623,774.013672 
	C520.491150,773.644287 528.623230,772.785767 536.776855,772.491516 
	C541.731201,772.312744 546.889587,772.025085 551.642822,773.132141 
	C565.250916,776.301392 570.239014,793.466125 560.098389,803.110718 
	C556.115662,806.898621 550.344666,809.782593 544.939758,810.890320 
	C534.539429,813.021790 523.837402,813.791870 513.226868,814.756165 
	C502.916626,815.693176 499.749084,818.363220 499.584442,828.472229 
	C499.267029,847.962036 499.216400,867.457031 499.186127,886.950134 
	C499.176544,893.153015 501.508087,896.229370 507.765381,896.199463 
	C521.725830,896.132812 535.683289,895.269226 549.640015,894.685059 
	C553.632751,894.517883 557.619385,893.979309 561.608093,893.986633 
	C572.186157,894.006165 579.644897,899.879150 581.499268,909.389282 
	C583.237976,918.305969 577.957031,927.625610 568.530640,931.114990 
	C563.899048,932.829468 558.898804,934.096863 553.989929,934.420227 
	C530.411255,935.973389 506.819702,937.672729 483.206818,938.237000 
	C468.794983,938.581299 460.501495,929.255066 460.358673,914.814697 
	C460.091736,887.823669 460.187164,860.826233 459.603790,833.842896 
	C459.422821,825.470947 457.335510,817.155640 456.505188,808.776367 
	C456.022522,803.905762 454.929565,798.463440 456.491516,794.137939 
	C461.671539,779.793091 461.001709,764.918335 461.934814,750.187561 
	C463.777344,721.099365 465.369629,691.995422 467.093689,662.899658 
	C467.191925,661.242249 467.518829,659.595764 467.783478,657.951294 
	C469.907776,644.752869 476.608398,638.012512 490.210297,636.477234 
	C513.379944,633.861877 536.580505,631.498535 559.791626,629.276001 
	C602.402710,625.195801 645.026794,621.249695 687.656799,617.372192 
	C693.435364,616.846680 699.323914,616.523804 705.082520,617.021484 
	C713.629150,617.759949 718.817810,622.460632 720.458069,629.716370 
	C722.118591,637.061401 719.526306,645.013855 712.111633,648.312256 
	C703.895569,651.967224 694.904724,654.833618 686.003479,655.830688 
	C647.109558,660.187012 608.125732,663.740417 568.725037,667.645752 
z"/>
<path fill="#92B537" opacity="1.000000" stroke="none" 
	d="
M364.328522,843.301453 
	C351.289795,851.007263 338.737976,858.869446 325.706818,865.834961 
	C319.785187,869.000244 316.999634,872.867310 316.955261,879.460327 
	C316.824188,898.944641 316.574219,918.430847 316.054077,937.907837 
	C315.936249,942.319275 315.127563,946.916931 313.588867,951.037537 
	C311.296753,957.175781 306.598694,961.323303 299.805725,961.848450 
	C293.347717,962.347656 288.163696,959.494629 284.467163,954.170532 
	C280.429718,948.355469 278.950562,941.733826 278.902466,934.785645 
	C278.704132,906.142517 278.145569,877.493042 278.534149,848.856934 
	C279.024323,812.730713 280.142303,776.609863 281.311279,740.497070 
	C282.049103,717.703369 283.524872,694.933594 284.269897,672.140015 
	C284.376648,668.874207 283.079651,664.807861 280.981506,662.350952 
	C270.007416,649.500244 274.325378,634.120483 290.975586,630.208801 
	C299.147095,628.288940 307.782318,627.936035 316.231781,627.684509 
	C339.246979,626.999329 361.898926,629.513855 383.110413,639.054565 
	C417.554779,654.547302 435.932465,680.817749 437.455017,719.230103 
	C438.951843,756.993591 422.713226,786.936707 398.115387,813.242981 
	C387.943451,824.121338 375.843109,833.196594 364.328522,843.301453 
M389.102844,692.451355 
	C375.600708,677.392212 358.324402,670.160583 338.549194,668.313477 
	C326.116364,667.152161 324.723450,668.507202 323.984619,680.891846 
	C321.764130,718.112732 319.476440,755.329651 317.325317,792.554443 
	C316.989532,798.364929 317.044312,804.215454 317.253387,810.035461 
	C317.500763,816.923828 321.238434,819.382324 327.473145,816.817200 
	C330.841278,815.431519 334.426605,814.064026 337.187866,811.802002 
	C348.365601,802.644836 359.973450,793.846558 370.090118,783.600220 
	C384.334442,769.173523 394.861664,752.186157 397.553467,731.490601 
	C399.330017,717.831909 398.619598,704.497375 389.102844,692.451355 
z"/>
<path fill="#93B638" opacity="1.000000" stroke="none" 
	d="
M590.078857,503.921204 
	C585.610229,506.497711 583.851868,510.105682 583.871643,514.877380 
	C583.928162,528.539185 584.059143,542.208008 583.674805,555.860352 
	C583.541931,560.580505 582.557800,565.470642 580.941650,569.911682 
	C578.227539,577.369934 571.988953,580.582397 564.371277,580.365295 
	C556.944946,580.153503 551.299011,576.419128 548.494629,569.378418 
	C547.223145,566.186279 546.119202,562.642883 546.136230,559.264832 
	C546.401367,506.622833 546.415833,453.972961 547.457275,401.344116 
	C548.023682,372.718262 550.396240,344.127594 551.993286,315.523254 
	C552.279846,310.390503 551.277527,305.935913 548.201721,301.472046 
	C539.904663,289.430756 546.779236,272.408386 560.980896,270.328491 
	C591.257019,265.894379 621.206543,266.845734 649.891785,278.929291 
	C682.423035,292.632935 700.729858,317.113800 704.187012,352.377380 
	C707.203918,383.149902 697.532166,410.268219 679.375793,434.565643 
	C656.098083,465.716553 625.788696,488.047516 590.078857,503.921204 
M585.992554,396.502045 
	C585.328186,412.971344 584.503113,429.436340 584.064026,445.911621 
	C583.827271,454.796234 587.295227,457.005798 595.625610,453.832581 
	C597.790466,453.007965 599.986938,452.041931 601.856567,450.704285 
	C611.178528,444.034760 620.985474,437.884125 629.524963,430.313660 
	C645.853394,415.838074 658.729248,398.767700 663.576477,376.856262 
	C666.981689,361.463226 667.490845,346.358612 656.881775,333.099487 
	C641.741516,314.177246 620.885315,308.493652 597.896057,308.127655 
	C593.848022,308.063202 592.185547,311.206268 591.914246,314.866302 
	C589.920532,341.756775 587.989868,368.651917 585.992554,396.502045 
z"/>
<path fill="#F35C59" opacity="1.000000" stroke="none" 
	d="
M907.047119,466.171143 
	C906.188354,496.115448 905.355957,525.581970 904.495667,555.047607 
	C904.413147,557.876282 904.307983,560.718933 903.953369,563.522278 
	C902.923645,571.662354 897.040771,577.933350 889.757996,578.839050 
	C881.279602,579.893372 874.294434,575.878296 871.408325,567.527588 
	C870.020142,563.511047 869.159912,559.073303 869.203613,554.838135 
	C869.587585,517.699829 869.831787,480.552673 870.905090,443.430908 
	C872.016724,404.983704 874.000061,366.561615 875.617004,328.129150 
	C876.055237,317.713196 871.928223,313.043335 861.413818,313.789032 
	C838.665955,315.402283 815.957825,317.573761 793.231995,319.499725 
	C775.485474,321.003754 757.744812,322.593994 739.981934,323.873260 
	C736.581360,324.118164 733.000854,323.437347 729.659119,322.577789 
	C723.752502,321.058533 719.389771,317.487152 718.535095,311.126434 
	C717.664490,304.648010 720.018555,298.862946 725.591980,295.658295 
	C730.685974,292.729218 736.460083,290.106262 742.201599,289.333710 
	C765.298218,286.225891 788.498962,283.892517 811.660278,281.264557 
	C845.736938,277.398132 879.785645,273.262909 913.896484,269.727051 
	C948.336853,266.157074 982.836853,263.161407 1017.316040,259.971100 
	C1020.292725,259.695648 1023.309998,259.768677 1026.306396,259.813171 
	C1036.278320,259.961151 1042.283081,264.734528 1044.119629,273.888672 
	C1045.948853,283.005646 1042.396362,290.310638 1032.784668,293.383423 
	C1024.144043,296.145782 1015.004578,297.660309 1005.968750,298.814209 
	C980.542969,302.061188 955.052124,304.796387 929.597534,307.822021 
	C919.204651,309.057343 914.689453,313.793823 914.042725,324.509491 
	C912.879456,343.784637 911.911865,363.072266 910.971985,382.360016 
	C909.618591,410.135193 908.363037,437.915192 907.047119,466.171143 
z"/>
<path fill="#F35B58" opacity="1.000000" stroke="none" 
	d="
M414.829529,273.687012 
	C423.647644,271.918182 432.064392,269.660248 440.617584,268.859894 
	C458.343781,267.201263 476.127289,265.908539 493.916290,265.249634 
	C507.065948,264.762512 514.953674,274.628967 512.041748,286.621063 
	C510.771118,291.853729 507.219604,295.262726 502.711121,297.775940 
	C492.947571,303.218475 482.010529,303.730042 471.288300,304.966248 
	C463.019562,305.919586 454.701752,306.445831 446.406250,307.167847 
	C442.321014,307.523438 439.198792,309.266968 438.908112,313.699951 
	C437.818634,330.313934 436.771606,346.933105 435.982788,363.563324 
	C435.659180,370.386475 436.988525,371.471832 443.737701,371.386017 
	C450.900848,371.294922 458.062805,370.941711 465.224670,370.958282 
	C476.113434,370.983490 482.533356,375.926971 483.999939,385.108521 
	C485.635406,395.347534 481.009979,404.433655 471.155396,407.119598 
	C462.734100,409.414825 453.830261,410.118164 445.087036,411.003693 
	C436.408203,411.882721 435.278748,412.698975 435.150452,421.639343 
	C435.030945,429.968964 434.962463,438.301605 435.048523,446.631104 
	C435.117188,453.273651 437.269653,455.472168 443.804565,455.186157 
	C458.443298,454.545532 473.070923,453.654236 487.704681,452.895416 
	C489.699310,452.792023 491.703735,452.820831 493.702301,452.859406 
	C503.032623,453.039337 509.622467,457.687469 511.419220,465.324463 
	C513.506653,474.196991 509.974731,483.019928 501.594727,486.608795 
	C495.579407,489.184875 488.926605,490.959198 482.416229,491.564972 
	C462.036591,493.461273 441.607086,495.005554 421.163025,495.964355 
	C406.081726,496.671722 397.220886,487.636902 397.090881,472.457916 
	C396.931030,453.796875 397.067505,435.133362 396.944550,416.471802 
	C396.925079,413.516602 396.710327,410.388397 395.728699,407.647125 
	C393.011047,400.057922 393.808044,392.661713 395.579498,385.057892 
	C396.779114,379.908630 397.547882,374.593567 397.860748,369.314240 
	C399.356995,344.063110 400.498871,318.790649 402.058899,293.543823 
	C402.590607,284.938751 406.216492,277.810089 414.829529,273.687012 
z"/>
<path fill="#0A529F" opacity="1.000000" stroke="none" 
	d="
M726.562012,574.565308 
	C719.857788,569.694275 717.859070,563.031555 717.774780,555.540588 
	C717.574341,537.714417 719.318115,519.596191 716.647705,502.151428 
	C714.417358,487.581177 716.716797,473.997711 717.706726,459.905396 
	C719.363220,436.322388 719.422913,412.630157 720.899170,389.030518 
	C721.922546,372.670807 729.237427,365.434387 745.670410,363.737152 
	C765.709656,361.667450 785.816833,360.253937 805.896179,358.575623 
	C807.054810,358.478760 808.231018,358.493347 809.393555,358.556763 
	C819.666687,359.117126 826.951965,365.263397 827.907410,374.148499 
	C828.808105,382.524323 822.880615,390.692139 812.841797,392.435120 
	C797.438538,395.109528 781.841492,396.671326 766.322449,398.673279 
	C758.787048,399.645325 756.585754,401.621521 756.249756,409.051971 
	C755.587708,423.695831 755.094910,438.349701 754.749634,453.004547 
	C754.580078,460.204254 756.453796,461.827606 763.664124,461.561646 
	C769.657043,461.340637 775.649536,461.076111 781.636047,460.725098 
	C791.700562,460.134949 798.723022,464.663116 800.682312,473.111328 
	C802.711914,481.863007 798.358582,490.852936 789.143677,493.765839 
	C781.622131,496.143433 773.547546,497.017059 765.644165,497.878906 
	C755.803040,498.952026 754.232849,500.103607 753.898926,510.002380 
	C753.663147,516.992798 753.571045,524.001282 753.786316,530.990173 
	C754.013550,538.368591 756.866638,540.772888 764.187744,540.218323 
	C776.477112,539.287476 788.748413,538.062805 801.050598,537.383667 
	C805.960571,537.112671 811.172791,537.125793 815.829102,538.464722 
	C827.873596,541.928040 831.395203,555.695496 822.074707,563.975464 
	C817.846924,567.731262 811.808655,570.770752 806.253418,571.478088 
	C784.138672,574.293762 761.908936,576.298157 739.676025,578.009583 
	C735.511047,578.330139 731.136414,575.928223 726.562012,574.565308 
z"/>
<path fill="#F45B58" opacity="1.000000" stroke="none" 
	d="
M616.351685,735.129761 
	C610.750122,735.026306 605.518860,735.487976 600.502747,734.654785 
	C592.046448,733.250183 586.903870,727.847595 585.819519,719.772034 
	C584.718140,711.570068 586.859070,704.158569 594.518494,700.120850 
	C599.238037,697.632996 604.752808,695.892456 610.057434,695.400879 
	C641.883667,692.451416 673.751892,689.954956 705.608276,687.332703 
	C707.595947,687.169067 709.608215,687.100281 711.598083,687.201904 
	C720.269775,687.644409 727.017395,693.078613 728.583557,700.782959 
	C730.415222,709.794189 726.740112,719.163208 718.530640,721.987244 
	C709.972473,724.931152 700.842957,726.453491 691.845886,727.831970 
	C673.617249,730.624634 677.120178,729.561279 676.347900,744.208618 
	C673.955017,789.592163 672.509033,835.025940 670.754272,880.442505 
	C670.278625,892.754944 670.186218,905.083984 669.583862,917.389099 
	C669.210938,925.007568 666.973694,931.917419 659.187134,935.359741 
	C649.604309,939.595886 638.176514,934.754150 635.211426,924.123108 
	C633.143860,916.709717 632.205811,908.700806 632.369141,900.991943 
	C633.296753,857.223938 634.680115,813.465332 635.976013,769.705566 
	C636.266785,759.887207 636.760742,750.073120 637.296021,740.264465 
	C637.517456,736.206543 635.940735,734.386597 631.798828,734.620056 
	C626.812073,734.901062 621.812683,734.958374 616.351685,735.129761 
z"/>
<path fill="#93B537" opacity="1.000000" stroke="none" 
	d="
M880.888794,695.889893 
	C881.005798,690.740601 881.290588,686.072876 881.177490,681.414734 
	C881.047607,676.067017 878.732117,673.839050 873.422974,673.828979 
	C866.428223,673.815796 859.421387,674.325989 852.440491,674.061768 
	C836.084534,673.442627 827.247742,658.002258 835.586487,644.936462 
	C838.783936,639.926392 843.581055,637.407043 849.300110,636.870300 
	C874.495728,634.505493 899.699646,632.225220 924.910950,630.033386 
	C935.194336,629.139343 945.494812,628.155579 955.804016,627.913818 
	C969.748901,627.586609 978.225403,639.453308 973.964111,652.673279 
	C971.675781,659.772583 966.258972,663.550659 959.430786,664.990051 
	C950.649719,666.841064 941.726318,668.030273 932.848938,669.406555 
	C925.345215,670.569885 922.524963,673.460388 922.095398,681.208557 
	C920.565369,708.810608 918.961182,736.409912 917.679199,764.023865 
	C916.574646,787.814575 915.852051,811.623169 914.999695,835.425232 
	C914.653198,845.100769 910.530945,851.094055 902.965759,852.704956 
	C892.549988,854.922852 882.984680,850.988220 879.414795,842.303955 
	C877.812378,838.406006 876.833069,833.908997 876.922974,829.712708 
	C877.654053,795.581726 878.678467,761.456848 879.675659,727.331909 
	C879.977295,717.010193 880.473633,706.694214 880.888794,695.889893 
z"/>
<path fill="#09519F" opacity="1.000000" stroke="none" 
	d="
M759.917236,889.999878 
	C758.581238,821.323547 760.558411,753.228699 764.892517,685.189575 
	C765.633179,673.561768 765.978088,661.905579 766.915344,650.295532 
	C767.202881,646.732361 768.552368,643.154419 769.941223,639.800842 
	C773.239746,631.836121 780.789490,626.688782 787.565247,627.387268 
	C795.879700,628.244324 802.882324,634.597717 803.763184,643.851196 
	C804.546265,652.076843 803.996094,660.462524 803.621094,668.758911 
	C802.545410,692.556152 800.861633,716.331909 800.144470,740.138062 
	C798.860291,782.764709 797.915649,825.404358 797.230286,868.044983 
	C796.960083,884.860657 798.107727,901.698486 797.869812,918.515686 
	C797.798462,923.558105 796.215942,929.186279 793.550354,933.431274 
	C790.200378,938.766174 784.474487,941.728577 777.595764,940.533386 
	C770.140747,939.238159 764.745361,934.817261 763.144043,927.679565 
	C761.338745,919.632812 760.968750,911.247681 760.216858,902.987671 
	C759.840210,898.850342 760.001953,894.664062 759.917236,889.999878 
z"/>
<path fill="#0B53A0" opacity="1.000000" stroke="none" 
	d="
M978.619629,519.993164 
	C978.197327,484.873138 977.699280,450.252625 977.463806,415.630371 
	C977.437561,411.766663 978.150452,407.529144 979.812439,404.089172 
	C985.701843,391.899445 1000.651733,391.271027 1007.941406,402.639648 
	C1012.841858,410.282043 1013.312256,419.072784 1013.600464,427.657562 
	C1014.281555,447.947205 1014.535828,468.255219 1014.678528,488.557831 
	C1014.831787,510.365204 1014.958313,532.182251 1014.424072,553.978516 
	C1014.288086,559.525513 1012.823303,565.807556 1009.844238,570.362122 
	C1003.035339,580.772461 988.952087,579.792175 983.415405,568.657227 
	C980.841125,563.480225 979.665283,557.278198 979.232605,551.438721 
	C978.471252,541.164551 978.767639,530.812012 978.619629,519.993164 
z"/>
<path fill="#94B639" opacity="1.000000" stroke="none" 
	d="
M836.442261,921.098877 
	C837.244873,910.533020 843.042175,904.146667 852.602600,902.296997 
	C869.061340,899.112488 885.627808,896.085449 902.292480,894.489441 
	C915.779541,893.197693 929.509766,893.511902 943.070251,894.250061 
	C952.026489,894.737488 957.633301,900.954590 958.602600,908.628906 
	C959.680847,917.166443 955.540771,925.011536 946.879517,927.925842 
	C939.874878,930.282715 932.370117,931.470886 924.988525,932.329163 
	C903.681763,934.806580 882.326111,936.864136 860.986389,939.055115 
	C859.336426,939.224548 857.661194,939.182068 855.997742,939.182251 
	C843.430603,939.183838 837.921387,934.198547 836.442261,921.098877 
z"/>
<path fill="#F35B58" opacity="1.000000" stroke="none" 
	d="
M459.755920,531.921448 
	C474.664032,531.562866 489.116882,530.900574 503.562927,531.026550 
	C512.876953,531.107727 519.087524,537.530701 519.703674,546.240417 
	C520.296326,554.619324 514.162354,562.643494 505.268219,563.816467 
	C490.101166,565.816589 474.829346,567.012695 459.647949,568.916748 
	C448.262329,570.344727 436.957916,572.411377 425.598572,574.064697 
	C422.650177,574.493774 419.622314,574.676636 416.646667,574.562683 
	C407.721252,574.220825 402.079529,569.740417 399.909454,561.558350 
	C398.133911,554.863892 401.328125,546.543152 408.554504,543.101562 
	C415.673859,539.710938 423.376160,537.134216 431.098785,535.526306 
	C440.345642,533.600952 449.885101,533.080688 459.755920,531.921448 
z"/>
<path fill="#0C539F" opacity="1.000000" stroke="none" 
	d="
M975.230896,353.300415 
	C976.365601,346.185791 978.557495,339.984833 983.679688,335.242004 
	C989.309082,330.029602 995.759399,328.520172 1002.991272,331.469635 
	C1009.765930,334.232605 1013.438477,339.727692 1013.000244,346.644501 
	C1012.636536,352.384796 1011.165283,358.540375 1008.413147,363.536072 
	C1003.661011,372.162262 995.949585,374.669891 987.248352,372.126221 
	C979.208496,369.775879 975.332642,363.853424 975.230896,353.300415 
z"/>
<path fill="#2AA3D3" opacity="1.000000" stroke="none" 
	d="
M834.801392,1016.002808 
	C834.790894,1025.001831 834.982117,1033.509888 834.632263,1041.995361 
	C834.545288,1044.104858 832.708679,1046.142212 831.676392,1048.212769 
	C829.633911,1047.158691 826.882019,1046.624268 825.666443,1044.964478 
	C818.792542,1035.578491 812.286926,1025.922729 805.199890,1015.701233 
	C804.900940,1017.304688 804.574036,1018.285278 804.556946,1019.271240 
	C804.418396,1027.265625 804.295593,1035.260864 804.261475,1043.256226 
	C804.248535,1046.283447 803.398682,1048.728149 800.013733,1048.857056 
	C796.384949,1048.995361 795.842651,1046.397705 795.859070,1043.410156 
	C795.932373,1030.077637 795.800171,1016.741821 796.101074,1003.415222 
	C796.147400,1001.364380 798.065186,999.355835 799.117432,997.327698 
	C800.967224,998.427551 803.409546,999.098572 804.567810,1000.698914 
	C810.717773,1009.196228 816.538940,1017.931213 822.491882,1026.571533 
	C823.395325,1027.882935 824.392395,1029.129639 826.237427,1031.599243 
	C826.237427,1020.928650 826.188232,1011.686951 826.259888,1002.446228 
	C826.291687,998.350220 829.341980,995.784546 832.128784,997.638000 
	C833.496033,998.547241 834.546509,1000.787903 834.690125,1002.513489 
	C835.048279,1006.816772 834.804993,1011.170166 834.801392,1016.002808 
z"/>
<path fill="#2AA3D3" opacity="1.000000" stroke="none" 
	d="
M660.108643,1029.997314 
	C660.111511,1020.847595 659.918152,1012.189453 660.263245,1003.552734 
	C660.346069,1001.480896 662.218445,999.480530 663.267822,997.447266 
	C665.109741,998.589478 667.513245,999.320190 668.701355,1000.941528 
	C675.674927,1010.458191 682.364807,1020.182617 690.561584,1029.813843 
	C690.561584,1025.856934 690.579407,1021.899902 690.557129,1017.943115 
	C690.529114,1012.953003 690.488770,1007.962708 690.414124,1002.973083 
	C690.369080,999.957458 691.420227,997.340088 694.621460,997.248230 
	C698.022827,997.150696 698.761902,999.933777 698.753845,1002.876160 
	C698.718384,1015.850769 698.868286,1028.829712 698.527161,1041.795898 
	C698.469604,1043.983154 696.330383,1046.115723 695.152954,1048.273560 
	C693.210144,1047.038940 690.692078,1046.227539 689.420532,1044.499146 
	C682.540833,1035.147095 675.969666,1025.568115 668.071411,1016.202576 
	C668.071411,1017.676697 668.072266,1019.150818 668.071228,1020.624939 
	C668.066040,1028.110596 668.021851,1035.596436 668.073547,1043.081787 
	C668.094421,1046.101562 667.224731,1048.686646 663.878296,1048.678711 
	C660.385315,1048.670532 659.868835,1045.925293 659.964844,1042.969971 
	C660.099792,1038.815063 660.069519,1034.654785 660.108643,1029.997314 
z"/>
<path fill="#2BA5D5" opacity="1.000000" stroke="none" 
	d="
M328.528809,997.895142 
	C333.844666,998.962830 339.435211,998.936768 343.445007,1001.441406 
	C349.623657,1005.300598 349.846619,1012.200745 345.743896,1021.234741 
	C346.576569,1022.353027 347.526306,1023.492798 348.328979,1024.728027 
	C354.583344,1034.354370 350.111420,1045.752197 338.857208,1047.831787 
	C333.191437,1048.878784 327.289124,1048.729614 321.487152,1048.921509 
	C318.416351,1049.023193 317.042877,1047.119141 317.011017,1044.143799 
	C316.868652,1030.846069 316.737091,1017.548035 316.560669,1004.250610 
	C316.505524,1000.094116 318.466339,998.113098 322.618744,998.161987 
	C324.443085,998.183533 326.269684,998.016602 328.528809,997.895142 
M329.735992,1026.312378 
	C328.309753,1026.448242 326.883484,1026.584106 325.073792,1026.756470 
	C325.352081,1031.605713 325.604340,1036.000732 325.896332,1041.088989 
	C329.940552,1040.700317 333.802917,1041.081299 336.975403,1039.780151 
	C339.399719,1038.785889 342.033997,1035.923096 342.633514,1033.425293 
	C343.504669,1029.796143 340.509583,1027.300049 337.019684,1026.433228 
	C335.002594,1025.932251 332.767029,1026.310791 329.735992,1026.312378 
M336.506012,1017.697266 
	C339.534424,1015.636963 342.227112,1013.388367 339.976471,1009.224182 
	C338.296753,1006.116394 330.319183,1003.654236 327.119934,1006.639404 
	C324.781982,1008.820862 325.192078,1013.947388 324.336884,1017.949768 
	C329.126190,1017.949768 332.414276,1017.949768 336.506012,1017.697266 
z"/>
<path fill="#2CA4D4" opacity="1.000000" stroke="none" 
	d="
M568.041504,998.769043 
	C578.788879,996.451477 587.744995,998.841736 594.250305,1007.424500 
	C600.564148,1015.754822 600.581299,1025.236938 596.795715,1034.445068 
	C591.895386,1046.364746 577.030212,1051.358276 564.612854,1045.890259 
	C552.629700,1040.613525 546.931641,1025.376831 552.305359,1012.874939 
	C555.298096,1005.912109 560.366516,1001.177612 568.041504,998.769043 
M558.888000,1019.921875 
	C557.222351,1035.722778 568.900940,1040.954346 577.463074,1039.701416 
	C585.527832,1038.520996 591.203064,1031.482422 591.077759,1023.192932 
	C590.933533,1013.656555 585.369934,1007.087769 576.478455,1005.956238 
	C568.861816,1004.986938 561.572876,1010.443481 558.888000,1019.921875 
z"/>
<path fill="#2AA3D3" opacity="1.000000" stroke="none" 
	d="
M501.595917,1039.772217 
	C501.619141,1027.972290 501.635590,1016.643494 501.656403,1005.314697 
	C501.658569,1004.149170 501.253448,1002.699646 501.792603,1001.876770 
	C502.940399,1000.124878 504.585022,998.698486 506.026031,997.138733 
	C507.288239,998.799011 509.392120,1000.342468 509.642181,1002.143311 
	C510.210083,1006.233215 509.847229,1010.449890 509.904694,1014.614502 
	C509.922516,1015.905090 510.075378,1017.193787 510.171417,1018.553467 
	C517.206665,1018.553467 523.941956,1018.553467 531.198181,1018.553467 
	C531.198181,1013.101990 530.814758,1008.086975 531.376221,1003.180176 
	C531.620300,1001.047241 533.806580,999.136658 535.110779,997.125061 
	C536.536865,999.064026 539.133545,1000.963623 539.200317,1002.948303 
	C539.653564,1016.420898 539.565552,1029.911499 539.670776,1043.396240 
	C539.695435,1046.556885 538.173523,1049.077148 535.109924,1048.512573 
	C533.524658,1048.220337 531.508728,1045.273926 531.318298,1043.364014 
	C530.796387,1038.130493 531.138367,1032.811035 531.138367,1027.563721 
	C523.966492,1027.563721 517.349182,1027.563721 509.893066,1027.563721 
	C509.893066,1032.447632 509.889526,1037.050049 509.894318,1041.652466 
	C509.897644,1044.849976 510.275452,1048.712769 505.763611,1048.734741 
	C501.310333,1048.756348 501.401733,1045.041016 501.568542,1041.742676 
	C501.593750,1041.243896 501.583954,1040.743286 501.595917,1039.772217 
z"/>
<path fill="#2AA3D3" opacity="1.000000" stroke="none" 
	d="
M395.564270,1008.639160 
	C397.496155,1018.698853 395.862335,1022.386475 386.910492,1028.268433 
	C390.004852,1032.765869 393.060913,1037.284790 396.204071,1041.742188 
	C397.675385,1043.828735 398.891296,1046.369385 396.143280,1047.646118 
	C394.503998,1048.407715 391.016022,1047.817627 389.868256,1046.510254 
	C386.600616,1042.788574 383.703369,1038.596069 381.425323,1034.193237 
	C379.267761,1030.023193 376.537720,1028.739258 371.526367,1030.409912 
	C371.526367,1034.205933 371.460480,1038.291626 371.547333,1042.374023 
	C371.616241,1045.614502 371.324493,1048.816040 367.225250,1048.829468 
	C363.469452,1048.841797 363.011383,1045.870483 362.989899,1042.774536 
	C362.896301,1029.288574 362.750031,1015.802795 362.564484,1002.317749 
	C362.517456,998.901001 364.190247,997.448242 367.454315,997.535095 
	C371.946930,997.654541 376.449921,997.636963 380.929016,997.953552 
	C387.795654,998.438721 392.984894,1001.483276 395.564270,1008.639160 
M377.366791,1006.248108 
	C375.427094,1006.248108 373.487427,1006.248108 371.403625,1006.248108 
	C371.403625,1011.705322 371.403625,1016.585876 371.403625,1022.089233 
	C375.718872,1021.306946 379.864777,1021.244141 383.334564,1019.680725 
	C385.593170,1018.663025 388.007782,1015.607910 388.315735,1013.204529 
	C388.775238,1009.617798 385.738037,1007.329895 382.210175,1006.458130 
	C380.951965,1006.147217 379.578522,1006.302551 377.366791,1006.248108 
z"/>
<path fill="#2FA5D4" opacity="1.000000" stroke="none" 
	d="
M426.016846,1005.829529 
	C424.202667,1005.859558 422.869598,1005.947693 421.540070,1005.910767 
	C418.656097,1005.830566 417.261688,1006.941895 417.545105,1010.061157 
	C417.782013,1012.668579 417.593750,1015.314575 417.593750,1018.259277 
	C421.300537,1018.469116 424.403687,1018.705505 427.511200,1018.803589 
	C430.587708,1018.900696 434.012115,1018.700256 433.905670,1023.081726 
	C433.802368,1027.333618 430.610138,1027.312744 427.396729,1027.145752 
	C424.431244,1026.991577 421.451447,1027.113037 418.081116,1027.113037 
	C418.081116,1031.648560 418.081116,1035.536377 418.081116,1040.045898 
	C423.543549,1040.045898 428.980988,1040.095459 434.416901,1040.026489 
	C437.446594,1039.987915 440.500305,1040.141479 440.555603,1044.055420 
	C440.611816,1048.030640 437.511200,1048.095703 434.511108,1048.147217 
	C428.024628,1048.258545 421.540161,1048.494385 415.055420,1048.696899 
	C410.891663,1048.826782 409.088226,1046.987549 409.120361,1042.676392 
	C409.220795,1029.187866 409.101868,1015.697144 408.984406,1002.208008 
	C408.957367,999.103271 410.223053,997.521667 413.364868,997.490601 
	C420.190582,997.423035 427.016205,997.343079 433.841644,997.252380 
	C436.804108,997.213013 439.464142,998.009033 439.517456,1001.408081 
	C439.570374,1004.780090 436.946594,1005.745178 433.993988,1005.800293 
	C431.496521,1005.846924 428.997772,1005.823425 426.016846,1005.829529 
z"/>
<path fill="#2AA3D3" opacity="1.000000" stroke="none" 
	d="
M778.601685,1047.492432 
	C777.901550,1046.323975 777.464233,1045.428223 776.996765,1044.548462 
	C775.310608,1041.375122 774.082886,1035.952393 771.828918,1035.484009 
	C766.305603,1034.336060 760.297241,1035.354736 754.509766,1035.820557 
	C753.617310,1035.892456 752.656433,1037.546875 752.082764,1038.653442 
	C750.783447,1041.159790 750.047546,1044.032837 748.406799,1046.258789 
	C747.464539,1047.536987 744.554565,1048.885986 743.681519,1048.345093 
	C742.294739,1047.485962 741.086487,1045.006348 741.227844,1043.332520 
	C741.428101,1040.960571 742.867554,1038.673340 743.875183,1036.393066 
	C748.984375,1024.830444 754.034546,1013.239807 759.353699,1001.774170 
	C760.139526,1000.080261 762.221252,997.974915 763.755920,997.931763 
	C765.227417,997.890381 767.450806,999.988831 768.169128,1001.653687 
	C773.959473,1015.075195 779.544067,1028.587891 784.969482,1042.161377 
	C785.578796,1043.685791 785.467407,1046.663208 784.513611,1047.363159 
	C783.221436,1048.311279 780.792053,1047.709473 778.601685,1047.492432 
M761.424194,1017.001404 
	C759.992737,1020.132446 758.561279,1023.263550 757.060608,1026.546021 
	C761.564209,1026.546021 765.533203,1026.546021 769.955627,1026.546021 
	C767.785950,1021.507874 765.864990,1017.047302 763.607605,1011.805603 
	C762.727966,1013.925781 762.225708,1015.136475 761.424194,1017.001404 
z"/>
<path fill="#2AA3D3" opacity="1.000000" stroke="none" 
	d="
M462.023682,1037.223633 
	C469.473572,1041.104614 476.169891,1040.488159 482.264008,1035.225708 
	C484.844696,1032.997192 487.348816,1032.517822 489.578186,1035.317383 
	C491.848267,1038.167847 489.712189,1040.296021 487.787140,1042.190186 
	C481.183594,1048.687988 467.310059,1049.978271 458.761993,1044.955078 
	C449.108978,1039.282593 444.489105,1027.910767 447.376434,1016.929321 
	C451.791992,1000.135559 469.491211,992.551453 483.959564,1001.415222 
	C485.964050,1002.643188 487.878082,1004.695740 488.767120,1006.814331 
	C489.303314,1008.092041 488.228516,1010.741455 487.022797,1011.809265 
	C486.224030,1012.516663 483.465546,1012.075745 482.347137,1011.187988 
	C474.080231,1004.625977 465.142120,1004.846558 459.077179,1012.042297 
	C452.901093,1019.369934 454.049530,1030.301636 462.023682,1037.223633 
z"/>
<path fill="#33A8D5" opacity="1.000000" stroke="none" 
	d="
M712.163574,1007.121094 
	C712.140991,1005.143372 712.177429,1003.642639 712.087585,1002.149536 
	C711.899170,999.016846 713.471069,997.390198 716.464661,997.353760 
	C723.783813,997.264648 731.125000,997.039368 738.410095,997.547180 
	C740.130676,997.667175 741.664734,1000.463135 743.284668,1002.028076 
	C741.633118,1003.317505 740.063965,1005.568787 738.314880,1005.718689 
	C732.726868,1006.197266 727.072083,1005.896179 721.066467,1005.896179 
	C721.066467,1010.429688 721.066467,1013.997070 721.066467,1018.285950 
	C724.349121,1018.285950 727.598206,1018.337524 730.844849,1018.271606 
	C734.108704,1018.205322 737.275818,1018.703613 737.242493,1022.712402 
	C737.211670,1026.422119 734.199219,1026.944336 731.108887,1026.883057 
	C727.822693,1026.817749 724.534180,1026.868408 720.836731,1026.868408 
	C720.836731,1031.852417 720.837708,1036.287720 720.836487,1040.723145 
	C720.835571,1044.164673 721.688965,1048.596191 716.659607,1048.775513 
	C711.426331,1048.962158 712.279053,1044.453369 712.262817,1041.042114 
	C712.209778,1029.895386 712.194946,1018.748413 712.163574,1007.121094 
z"/>
<path fill="#2BA5D5" opacity="1.000000" stroke="none" 
	d="
M858.058167,1042.637695 
	C858.058472,1030.555054 858.058472,1018.931274 858.058472,1006.785583 
	C854.329651,1006.785583 851.216797,1006.782959 848.104004,1006.786316 
	C845.202698,1006.789429 843.116638,1005.645813 843.141479,1002.494141 
	C843.166138,999.374329 845.211975,998.226379 848.135986,998.217102 
	C857.467468,998.187317 866.804626,997.937561 876.124817,998.235535 
	C877.788574,998.288757 879.381714,1000.550659 881.007446,1001.792725 
	C879.533081,1003.302673 878.285522,1005.671448 876.534485,1006.134033 
	C873.406494,1006.960205 869.974731,1006.636353 866.259827,1006.812805 
	C866.259827,1015.200012 866.263000,1023.315186 866.258423,1031.430420 
	C866.256226,1035.260376 866.220825,1039.090576 866.234985,1042.920410 
	C866.245361,1045.718872 866.119812,1048.680542 862.501953,1048.852783 
	C858.717712,1049.032593 857.886414,1046.302490 858.058167,1042.637695 
z"/>
<path fill="#2AA3D3" opacity="1.000000" stroke="none" 
	d="
M922.922607,1021.001465 
	C922.928833,1027.458252 922.928833,1033.415039 922.928833,1040.051636 
	C929.526611,1040.051636 935.611572,1040.114746 941.694336,1040.025269 
	C944.767578,1039.979980 947.767578,1040.217285 947.690308,1044.128174 
	C947.619751,1047.700195 944.730469,1047.894653 941.875854,1047.961304 
	C934.730042,1048.127686 927.588867,1048.487549 920.443604,1048.689941 
	C915.424438,1048.832153 914.268555,1047.450073 914.364624,1042.584106 
	C914.613831,1029.959351 914.714355,1017.331543 914.862122,1004.704834 
	C914.871765,1003.875244 914.437622,1002.832703 914.796936,1002.253174 
	C915.970520,1000.360229 917.416016,998.635864 918.756958,996.846680 
	C920.128479,998.577454 922.529785,1000.222046 922.683350,1002.054810 
	C923.195312,1008.167297 922.901367,1014.347229 922.922607,1021.001465 
z"/>
<path fill="#2FA5D4" opacity="1.000000" stroke="none" 
	d="
M636.621521,1014.018066 
	C636.612610,1009.702942 636.185425,1005.822632 636.757935,1002.095825 
	C637.031738,1000.313721 639.201233,998.822815 640.512146,997.199951 
	C641.941772,998.714661 644.573547,1000.198486 644.613342,1001.748901 
	C644.975342,1015.847717 645.018372,1029.960815 644.745728,1044.061768 
	C644.714478,1045.680054 642.360840,1048.357422 640.773743,1048.612183 
	C637.443909,1049.147095 636.358704,1046.276123 636.365234,1043.367798 
	C636.386902,1033.750366 636.522156,1024.133179 636.621521,1014.018066 
z"/>
<path fill="#2FA5D4" opacity="1.000000" stroke="none" 
	d="
M891.279175,1012.021423 
	C891.264038,1008.367920 890.775024,1005.109924 891.412842,1002.089966 
	C891.795715,1000.276978 893.937256,998.835327 895.288330,997.226807 
	C896.563782,998.716919 898.891296,1000.166321 898.950806,1001.703491 
	C899.496338,1015.805481 899.797729,1029.923584 899.715942,1044.034424 
	C899.706299,1045.692139 897.170593,1048.396973 895.431885,1048.744385 
	C892.534363,1049.323486 891.236084,1046.860474 891.247009,1043.922485 
	C891.285889,1033.454224 891.273132,1022.985657 891.279175,1012.021423 
z"/>
<path fill="#FBFCFC" opacity="1.000000" stroke="none" 
	d="
M250.134933,368.131958 
	C251.498856,350.073334 252.843750,332.483246 254.199371,314.893982 
	C254.675613,308.714630 257.285278,305.803833 263.215942,305.856079 
	C278.087555,305.987030 292.381897,308.868530 305.304474,316.565613 
	C322.803772,326.988708 330.088257,342.815033 328.803864,362.826111 
	C327.458008,383.795776 318.597351,401.508728 304.936615,417.091217 
	C292.349579,431.449005 277.934448,443.702972 262.111938,454.336578 
	C260.872528,455.169525 259.578156,455.950714 258.229126,456.585480 
	C252.346024,459.353699 247.782867,457.200470 246.899246,450.812408 
	C246.242264,446.062897 246.000809,441.181854 246.247345,436.394012 
	C247.411301,413.789764 248.807053,391.197418 250.134933,368.131958 
z"/>
<path fill="#FCFDFB" opacity="1.000000" stroke="none" 
	d="
M389.341370,692.719482 
	C398.619598,704.497375 399.330017,717.831909 397.553467,731.490601 
	C394.861664,752.186157 384.334442,769.173523 370.090118,783.600220 
	C359.973450,793.846558 348.365601,802.644836 337.187866,811.802002 
	C334.426605,814.064026 330.841278,815.431519 327.473145,816.817200 
	C321.238434,819.382324 317.500763,816.923828 317.253387,810.035461 
	C317.044312,804.215454 316.989532,798.364929 317.325317,792.554443 
	C319.476440,755.329651 321.764130,718.112732 323.984619,680.891846 
	C324.723450,668.507202 326.116364,667.152161 338.549194,668.313477 
	C358.324402,670.160583 375.600708,677.392212 389.341370,692.719482 
z"/>
<path fill="#FCFDFB" opacity="1.000000" stroke="none" 
	d="
M586.015930,396.023804 
	C587.989868,368.651917 589.920532,341.756775 591.914246,314.866302 
	C592.185547,311.206268 593.848022,308.063202 597.896057,308.127655 
	C620.885315,308.493652 641.741516,314.177246 656.881775,333.099487 
	C667.490845,346.358612 666.981689,361.463226 663.576477,376.856262 
	C658.729248,398.767700 645.853394,415.838074 629.524963,430.313660 
	C620.985474,437.884125 611.178528,444.034760 601.856567,450.704285 
	C599.986938,452.041931 597.790466,453.007965 595.625610,453.832581 
	C587.295227,457.005798 583.827271,454.796234 584.064026,445.911621 
	C584.503113,429.436340 585.328186,412.971344 586.015930,396.023804 
z"/>
<path fill="#EFF7FA" opacity="1.000000" stroke="none" 
	d="
M330.182892,1026.302979 
	C332.767029,1026.310791 335.002594,1025.932251 337.019684,1026.433228 
	C340.509583,1027.300049 343.504669,1029.796143 342.633514,1033.425293 
	C342.033997,1035.923096 339.399719,1038.785889 336.975403,1039.780151 
	C333.802917,1041.081299 329.940552,1040.700317 325.896332,1041.088989 
	C325.604340,1036.000732 325.352081,1031.605713 325.073792,1026.756470 
	C326.883484,1026.584106 328.309753,1026.448242 330.182892,1026.302979 
z"/>
<path fill="#EFF7FA" opacity="1.000000" stroke="none" 
	d="
M336.104187,1017.823486 
	C332.414276,1017.949768 329.126190,1017.949768 324.336884,1017.949768 
	C325.192078,1013.947388 324.781982,1008.820862 327.119934,1006.639404 
	C330.319183,1003.654236 338.296753,1006.116394 339.976471,1009.224182 
	C342.227112,1013.388367 339.534424,1015.636963 336.104187,1017.823486 
z"/>
<path fill="#F9FCFD" opacity="1.000000" stroke="none" 
	d="
M558.925171,1019.495361 
	C561.572876,1010.443481 568.861816,1004.986938 576.478455,1005.956238 
	C585.369934,1007.087769 590.933533,1013.656555 591.077759,1023.192932 
	C591.203064,1031.482422 585.527832,1038.520996 577.463074,1039.701416 
	C568.900940,1040.954346 557.222351,1035.722778 558.925171,1019.495361 
z"/>
<path fill="#EFF7FA" opacity="1.000000" stroke="none" 
	d="
M377.812256,1006.246582 
	C379.578522,1006.302551 380.951965,1006.147217 382.210175,1006.458130 
	C385.738037,1007.329895 388.775238,1009.617798 388.315735,1013.204529 
	C388.007782,1015.607910 385.593170,1018.663025 383.334564,1019.680725 
	C379.864777,1021.244141 375.718872,1021.306946 371.403625,1022.089233 
	C371.403625,1016.585876 371.403625,1011.705322 371.403625,1006.248108 
	C373.487427,1006.248108 375.427094,1006.248108 377.812256,1006.246582 
z"/>
<path fill="#EFF7FA" opacity="1.000000" stroke="none" 
	d="
M761.573853,1016.674255 
	C762.225708,1015.136475 762.727966,1013.925781 763.607605,1011.805603 
	C765.864990,1017.047302 767.785950,1021.507874 769.955627,1026.546021 
	C765.533203,1026.546021 761.564209,1026.546021 757.060608,1026.546021 
	C758.561279,1023.263550 759.992737,1020.132446 761.573853,1016.674255 
z"/>
</svg>